# xmcd
#
# Track frame offsets:
#	150
#	11602
#	29135
#	45700
#	60147
#	77852
#	95727
#	109252
#	121822
#	129470
#	144557
#
# Disc length: 2067 seconds
#
# Revision: 1
# Processed by: cddbd v1.5.2PL0 Copyright (c) Steve Scherf et al.
# Submitted via: CDRider 2.1
#
DISCID=9308110b
DTITLE=Stephanie Davis - I'm Pullin' Through
DYEAR=2006
DGENRE=Country
TTITLE0=There's A Springtime Feelin' in My Heart
TTITLE1=Takin' A Chance On Love
TTITLE2=I'm Pullin' Through
TTITLE3=Hallelujah
TTITLE4=You've Changed
TTITLE5=Yellow Moon
TTITLE6=What A Little Moonlight Can Do
TTITLE7=Yours
TTITLE8=I'll Never Say Never Again
TTITLE9=He's Funny That Way
TTITLE10=Big Sky Bounce
EXTD=
EXTT0=
EXTT1=
EXTT2=
EXTT3=
EXTT4=
EXTT5=
EXTT6=
EXTT7=
EXTT8=
EXTT9=
EXTT10=
PLAYORDER=
